<?xml version="1.0" encoding="UTF-8"?>
<svg id="Layer_2" data-name="Layer 2" xmlns="http://www.w3.org/2000/svg" viewBox="0 0 32.08 32.08">
  <defs>
    <style>
      .cls-1 {
        fill: blue;
      }

      .cls-2 {
        fill: #fafafa;
      }
    </style>
  </defs>
  <g id="Layer_1-2" data-name="Layer 1">
    <rect class="cls-2" width="32.08" height="32.08" rx="4.35" ry="4.35"/>
    <g>
      <path class="cls-1" d="M7.46,10.06h1.85v7.84c0,1.15-.32,2.12-.97,2.92-.65.8-1.7,1.21-3.16,1.21-.88,0-1.62-.18-2.24-.53-.62-.35-1.09-.84-1.41-1.45-.32-.61-.48-1.3-.48-2.07s.17-1.44.51-2.02l1.77.67c-.28.42-.42.92-.42,1.52s.22,1.12.66,1.52c.44.39.98.59,1.62.59.76,0,1.33-.23,1.71-.7.38-.47.56-1.09.56-1.88v-7.62Z"/>
      <path class="cls-1" d="M12.02,10.06l4.05,10.3,4.05-10.3h2.09l-4.86,11.8h-2.56l-4.86-11.8h2.09Z"/>
      <path class="cls-1" d="M21.76,18.4v-1.6h9.27v1.6h-9.27Z"/>
    </g>
  </g>
</svg>