<svg xmlns="http://www.w3.org/2000/svg" viewBox="0 0 192 192">
  <defs>
    <style>
      .a {
        fill: #fafafa;
      }

      .b {
        fill: blue;
      }
    </style>
  </defs>
  <title>JohnVrhovnik_Branding_2dot0</title>
  <rect class="a" width="192" height="192" rx="26.01" ry="26.01"/>
  <g>
    <path class="b" d="M44.65,60.19H55.74V107.1a27,27,0,0,1-5.8,17.5q-5.79,7.22-18.91,7.21a26.67,26.67,0,0,1-13.42-3.17A21.06,21.06,0,0,1,9.19,120,26.23,26.23,0,0,1,6.31,107.6a23.73,23.73,0,0,1,3-12.1l10.59,4a15.86,15.86,0,0,0-2.52,9.08,11.65,11.65,0,0,0,3.93,9.08A14,14,0,0,0,31,121.22q6.86,0,10.24-4.19t3.38-11.24Z"/>
    <path class="b" d="M72,60.19l24.21,61.64,24.21-61.64h12.51L103.83,130.8H88.5l-29-70.61Z"/>
    <path class="b" d="M130.2,110.12v-9.58h55.49v9.58Z"/>
  </g>
</svg>
