<?xml version="1.0" encoding="UTF-8"?>
<svg id="Layer_2" data-name="Layer 2" xmlns="http://www.w3.org/2000/svg" viewBox="0 0 50.4 50.4" fill="#0000FF">
  <g id="Layer_1-2" data-name="Layer 1">
    <path d="M12.56,47.02c-3.86-2.26-6.92-5.32-9.18-9.18-2.26-3.86-3.38-8.08-3.38-12.64s1.13-8.77,3.38-12.64c2.26-3.86,5.32-6.92,9.18-9.18,3.86-2.25,8.08-3.38,12.64-3.38s8.77,1.13,12.63,3.38c3.86,2.26,6.92,5.32,9.18,9.18,2.26,3.86,3.38,8.08,3.38,12.64s-1.13,8.77-3.38,12.64c-2.26,3.86-5.32,6.92-9.18,9.18s-8.08,3.38-12.63,3.38-8.77-1.13-12.64-3.38ZM34.99,42.05c2.98-1.73,5.33-4.08,7.06-7.06,1.73-2.98,2.59-6.24,2.59-9.79s-.86-6.82-2.59-9.79c-1.73-2.98-4.08-5.33-7.06-7.06-2.98-1.73-6.24-2.59-9.79-2.59s-6.82.86-9.79,2.59c-2.98,1.73-5.33,4.08-7.06,7.06-1.73,2.98-2.59,6.24-2.59,9.79s.86,6.82,2.59,9.79c1.73,2.98,4.08,5.33,7.06,7.06,2.98,1.73,6.24,2.59,9.79,2.59s6.81-.86,9.79-2.59ZM16.6,36.83c-2.47-1.85-4.14-4.16-5-6.95l5.4-2.38c.58,1.97,1.56,3.52,2.95,4.64,1.39,1.13,3.14,1.69,5.26,1.69s3.86-.56,5.26-1.69c1.39-1.13,2.38-2.68,2.95-4.64l5.4,2.38c-.86,2.78-2.53,5.1-5,6.95-2.47,1.85-5.34,2.77-8.6,2.77s-6.13-.92-8.6-2.77ZM15.08,20.2c-.7-.7-1.04-1.55-1.04-2.56s.35-1.86,1.04-2.56c.7-.7,1.55-1.04,2.56-1.04s1.86.35,2.56,1.04c.7.7,1.04,1.55,1.04,2.56s-.35,1.86-1.04,2.56c-.7.7-1.55,1.04-2.56,1.04s-1.86-.35-2.56-1.04ZM30.21,20.2c-.7-.7-1.04-1.55-1.04-2.56s.35-1.86,1.04-2.56c.7-.7,1.55-1.04,2.56-1.04s1.86.35,2.56,1.04c.7.7,1.04,1.55,1.04,2.56s-.35,1.86-1.04,2.56-1.55,1.04-2.56,1.04-1.86-.35-2.56-1.04Z"/>
  </g>
</svg>